<svg xmlns="http://www.w3.org/2000/svg" width="200" height="90" viewBox="0 0 200 90">
    <g fill="none" fill-rule="evenodd" transform="translate(42)">
        <path fill="#000" fill-rule="nonzero" d="M33.156 74.374a4.275 4.275 0 0 0-2.63-3.967 4.283 4.283 0 0 0-4.672.917 4.272 4.272 0 0 0-.93 4.666 4.28 4.28 0 0 0 3.963 2.636 4.068 4.068 0 0 0 3.079-1.18 4.059 4.059 0 0 0 1.19-3.072m-12.738 0c0-4.5 3.548-7.943 8.47-7.943 4.92 0 8.457 3.465 8.457 7.943 0 4.477-3.514 7.942-8.458 7.942-4.944 0-8.469-3.465-8.469-7.942M13.706 75.195c0 1.856-1.88 3.375-4.268 3.375a4 4 0 0 1-3.207-1.132 3.991 3.991 0 0 1-1.174-3.188c0-2.453 1.79-4.14 4.505-4.14 2.252 0 4.099 1.541 4.099 3.285l.045 1.8zm.169-8.764v1.778a6.762 6.762 0 0 0-5.012-1.778 7.764 7.764 0 0 0-5.67 2.237A7.747 7.747 0 0 0 .89 74.306a7.87 7.87 0 0 0 2.367 5.698 7.888 7.888 0 0 0 5.753 2.245 6.412 6.412 0 0 0 4.865-1.834v1.53c0 2.059-1.757 3.566-4.1 3.566a6.435 6.435 0 0 1-4.91-1.8L2.14 86.344a10.48 10.48 0 0 0 7.726 3.049c4.786 0 8.063-3.218 8.063-7.504V66.43h-4.054z"/>
        <path fill="#231F20" fill-rule="nonzero" d="M39.857 66.859h4.065v1.327a6.762 6.762 0 0 1 4.843-1.755 7.741 7.741 0 0 1 5.553 2.3 7.724 7.724 0 0 1 2.23 5.575 7.645 7.645 0 0 1-2.177 5.63 7.662 7.662 0 0 1-5.583 2.301 7.156 7.156 0 0 1-4.685-1.586h-.068V88.2h-4.178V66.859zm8.255 3.285c-2.253 0-4.077 1.552-4.077 3.251v1.901c0 1.823 1.813 3.319 4.11 3.319a4.243 4.243 0 0 0 4.028-4.236c0-2.257-1.77-4.119-4.027-4.235h-.034zM58.496 66.859h4.189v7.954a3.305 3.305 0 0 0 .938 2.736 3.313 3.313 0 0 0 2.734.953 3.651 3.651 0 0 0 2.766-.986 3.643 3.643 0 0 0 1.141-2.704V66.86h4.179v15.019H70.4V80.46h-.057a7.032 7.032 0 0 1-5.056 1.834c-4.28 0-6.758-2.52-6.758-6.852l-.033-8.583zM77.247 61.189h4.19v20.688h-4.19zM87.315 76.061c.597 1.935 2.129 2.891 4.505 2.891 2.174 0 3.379-.483 3.379-1.305 0-.82-.901-1.27-3.705-1.698-5.485-.844-7.445-2.183-7.445-4.871 0-2.69 2.782-4.647 6.904-4.647 3.762 0 7.185 1.924 7.974 4.5l-3.818 1.125a4.247 4.247 0 0 0-4.11-2.306c-1.735 0-2.862.506-2.862 1.305 0 .799.789 1.125 4.1 1.642 5.068.8 7.073 2.183 7.073 4.906 0 2.722-2.996 4.668-7.49 4.668a10.291 10.291 0 0 1-5.63-1.44 5.974 5.974 0 0 1-2.85-3.836l3.975-.934zM107.452 72.922c2.748-.37 3.57-.764 3.57-1.53 0-1-1.047-1.586-2.658-1.586a3.536 3.536 0 0 0-3.739 2.689l-3.953-.821c.563-3.06 3.705-5.243 7.58-5.243 4.38 0 7.095 2.25 7.095 5.895v9.552h-3.762v-1.643h-.09a6.175 6.175 0 0 1-5.057 2.059c-3.31 0-5.63-1.811-5.63-4.5s1.925-4.219 6.644-4.871zm3.908 1.587c-.372.54-1.126.844-3.198 1.215-2.456.45-3.38.933-3.38 1.811 0 .877.733 1.305 2.32 1.305 2.4 0 4.27-1.125 4.27-2.554l-.012-1.777z"/>
        <ellipse cx="58.755" cy="28.586" fill="#00AED6" fill-rule="nonzero" rx="27.029" ry="27"/>
        <path fill="#FFF" fill-rule="nonzero" d="M61.874 23.996h-2.86a.281.281 0 0 1-.27-.281v-2.88a.27.27 0 0 0-.507-.124l-2.85 5.952a.27.27 0 0 0 .237.404h2.849a.27.27 0 0 1 .27.282v2.88a.27.27 0 0 0 .518.123l2.85-5.95a.281.281 0 0 0-.237-.406z"/>
        <path fill="#FFF" fill-rule="nonzero" d="M70.017 16.234a4.051 4.051 0 0 0-2.895-3.263 40.203 40.203 0 0 0-16.746 0 4.108 4.108 0 0 0-2.895 3.274c-.995 8.22-.995 16.53 0 24.75a4.074 4.074 0 0 0 2.895 3.263 40.011 40.011 0 0 0 16.746 0 4.051 4.051 0 0 0 2.895-3.263c.995-8.224.995-16.537 0-24.761zM61.187 40.5a2.654 2.654 0 0 1-1.013 2.047 2.446 2.446 0 0 1-1.374.45 2.48 2.48 0 0 1-1.386-.45 2.654 2.654 0 0 1-1.103-2.047 2.418 2.418 0 0 1 1.157-2.232 2.424 2.424 0 0 1 2.516 0c.773.47 1.22 1.33 1.158 2.232h.045zm5.868-7.661c-.001.28-.054.56-.158.821a3.13 3.13 0 0 1-2.782 2.25c-3.571.186-7.15.186-10.721 0a3.119 3.119 0 0 1-2.793-2.25c-.1-.262-.15-.54-.147-.821-.127-4.5-.063-9 .192-13.5.028-.27.081-.538.157-.799a3.443 3.443 0 0 1 1.127-1.598 2.59 2.59 0 0 1 .766-.506c.286-.149.6-.237.923-.259.405 0 .822-.078 1.228-.078a49.607 49.607 0 0 1 7.647 0c.506 0 1.002 0 1.497.101.323.019.638.107.924.259.287.121.55.293.777.506.518.416.909.97 1.126 1.598.073.26.122.528.147.798.135 4.511.214 9.023.09 13.512v-.034z"/>
        <path d="M0 0h116v90H0z"/>
    </g>
</svg>
